<svg width="20.000000" height="20.000000" viewBox="0 0 20 20" fill="none" xmlns="http://www.w3.org/2000/svg" xmlns:xlink="http://www.w3.org/1999/xlink">
	<desc>
			Created with Pixso.
	</desc>
	<defs>
		<clipPath id="clip381_382">
			<rect id="Shopping/Icon 1 - 24px" width="20.000000" height="20.000000" fill="white" fill-opacity="0"/>
		</clipPath>
	</defs>
	<g clip-path="url(#clip381_382)">
		<path id="Icon" d="M2.5 2.5C2.03967 2.5 1.66663 2.87305 1.66663 3.33301C1.66663 3.79395 2.03967 4.16699 2.5 4.16699L2.5 3.33301L2.5 4.16699L2.5 4.16699L2.50012 4.16699L2.50024 4.16699L2.50037 4.16699L2.50049 4.16699L2.50061 4.16699L2.50159 4.16699L2.50281 4.16699L2.50354 4.16699L2.50391 4.16699L2.50439 4.16699L2.50623 4.16699L2.50842 4.16699L2.50903 4.16699L2.50977 4.16699L2.51111 4.16699L2.54309 4.16699L2.66272 4.16699L3.07288 4.16699L3.50146 4.16699L5.43738 12.6846C5.53711 13.124 5.96692 13.4023 6.40588 13.3184C6.45654 13.3281 6.50891 13.333 6.5625 13.333L15 13.333C15.3473 13.333 15.6583 13.1182 15.7803 12.793L18.2803 6.12598C18.3762 5.87012 18.3406 5.58301 18.1849 5.3584C18.0292 5.13379 17.7733 5 17.5 5L5.40002 5L4.97925 3.14844C4.89307 2.76953 4.55566 2.5 4.16663 2.5L3.07288 2.5L2.66272 2.5L2.54309 2.5L2.53796 2.5L2.5332 2.5L2.5321 2.5L2.53088 2.5L2.52869 2.5L2.52454 2.5L2.51721 2.5L2.51636 2.5L2.5155 2.5L2.51477 2.5L2.51392 2.5L2.51318 2.5L2.51245 2.5L2.51111 2.5L2.50623 2.5L2.50439 2.5L2.50391 2.5L2.50354 2.5L2.50281 2.5L2.50061 2.5L2.50037 2.5L2.50024 2.5L2.50012 2.5L2.5 2.5L2.5 2.5L2.5 3.33301L2.5 2.5ZM5.77881 6.66699L6.91516 11.667L14.4225 11.667L16.2975 6.66699L5.77881 6.66699ZM8.33325 14.167C7.41284 14.167 6.66663 14.9131 6.66663 15.833C6.66663 16.7539 7.41284 17.5 8.33325 17.5C9.25378 17.5 10 16.7539 10 15.833C10 14.9131 9.25378 14.167 8.33325 14.167ZM11.6666 15.833C11.6666 14.9131 12.4128 14.167 13.3333 14.167C14.2538 14.167 15 14.9131 15 15.833C15 16.7539 14.2538 17.5 13.3333 17.5C12.4128 17.5 11.6666 16.7539 11.6666 15.833Z" fill="#FF7A00" fill-opacity="1.000000" fill-rule="evenodd"/>
	</g>
</svg>
