<svg width="40.000000" height="40.000000" viewBox="0 0 40 40" fill="none" xmlns="http://www.w3.org/2000/svg" xmlns:xlink="http://www.w3.org/1999/xlink">
	<desc>
			Created with Pixso.
	</desc>
	<defs/>
	<path id="Oval 3 Copy 2" d="M20 40C31.0457 40 40 31.0459 40 20C40 8.9541 31.0457 0 20 0C8.9543 0 0 8.9541 0 20C0 31.0459 8.9543 40 20 40Z" fill="#E4405F" fill-opacity="1.000000" fill-rule="evenodd"/>
	<path id="Fill 1" d="M19.9969 10.0059C17.2819 10.0059 16.9414 10.0176 15.8752 10.0664C14.8111 10.1143 14.0844 10.2832 13.4485 10.5303C12.7912 10.7861 12.2337 11.1279 11.6779 11.6836C11.1221 12.2393 10.7803 12.7969 10.5248 13.4541C10.2777 14.0898 10.1087 14.8174 10.0602 15.8809C10.0115 16.9473 10 17.2881 10 20.0029C10 22.7178 10.0115 23.0586 10.0602 24.124C10.1087 25.1885 10.2777 25.915 10.5248 26.5508C10.7803 27.208 11.1221 27.7656 11.6779 28.3213C12.2337 28.8779 12.7912 29.2197 13.4485 29.4746C14.0844 29.7217 14.8111 29.8906 15.8752 29.9395C16.9414 29.9883 17.2819 30 19.9969 30C22.7118 30 23.0523 29.9883 24.1185 29.9395C25.1826 29.8906 25.9093 29.7217 26.5452 29.4746C27.2025 29.2197 27.76 28.8779 28.3158 28.3213C28.8716 27.7656 29.2134 27.208 29.4689 26.5508C29.716 25.915 29.885 25.1885 29.9335 24.124C29.9822 23.0586 29.9937 22.7178 29.9937 20.0029C29.9937 17.2881 29.9822 16.9473 29.9335 15.8809C29.885 14.8174 29.716 14.0898 29.4689 13.4541C29.2134 12.7969 28.8716 12.2393 28.3158 11.6836C27.76 11.1279 27.2025 10.7861 26.5452 10.5303C25.9093 10.2832 25.1826 10.1143 24.1185 10.0664C23.0523 10.0176 22.7118 10.0059 19.9969 10.0059ZM24.0364 11.8652C22.9823 11.8174 22.6661 11.8066 19.9969 11.8066C17.3276 11.8066 17.0114 11.8174 15.9573 11.8652C14.9826 11.9102 14.4532 12.0723 14.101 12.21C13.6344 12.3906 13.3013 12.6074 12.9516 12.957C12.6017 13.3076 12.3851 13.6406 12.2037 14.1064C12.0668 14.459 11.904 14.9883 11.8595 15.9629C11.8114 17.0176 11.8012 17.333 11.8012 20.0029C11.8012 22.6719 11.8114 22.9883 11.8595 24.042C11.904 25.0166 12.0668 25.5459 12.2037 25.8984C12.3851 26.3652 12.6017 26.6982 12.9516 27.0479C13.3013 27.3975 13.6344 27.6143 14.101 27.7959C14.4532 27.9326 14.9826 28.0957 15.9573 28.1396C17.0113 28.1885 17.3274 28.1982 19.9969 28.1982C22.6663 28.1982 22.9825 28.1885 24.0364 28.1396C25.0111 28.0957 25.5404 27.9326 25.8927 27.7959C26.3593 27.6143 26.6923 27.3975 27.0421 27.0479C27.392 26.6982 27.6086 26.3652 27.79 25.8984C27.9269 25.5459 28.0897 25.0166 28.1342 24.042C28.1823 22.9883 28.1925 22.6719 28.1925 20.0029C28.1925 17.333 28.1823 17.0176 28.1342 15.9629C28.0897 14.9883 27.9269 14.459 27.79 14.1064C27.6086 13.6406 27.392 13.3076 27.0421 12.957C26.6923 12.6074 26.3593 12.3906 25.8927 12.21C25.5404 12.0723 25.0111 11.9102 24.0364 11.8652Z" clip-rule="evenodd" fill="#FFFFFF" fill-opacity="1.000000" fill-rule="evenodd"/>
	<path id="Fill 4" d="M14.8633 20.0029C14.8633 17.167 17.1617 14.8691 19.9969 14.8691C22.832 14.8691 25.1304 17.167 25.1304 20.0029C25.1304 22.8379 22.832 25.1357 19.9969 25.1357C17.1617 25.1357 14.8633 22.8379 14.8633 20.0029ZM16.6646 20.0029C16.6646 21.8428 18.1565 23.335 19.9969 23.335C21.8372 23.335 23.3291 21.8428 23.3291 20.0029C23.3291 18.1621 21.8372 16.6699 19.9969 16.6699C18.1565 16.6699 16.6646 18.1621 16.6646 20.0029Z" clip-rule="evenodd" fill="#FFFFFF" fill-opacity="1.000000" fill-rule="evenodd"/>
	<path id="Fill 5" d="M26.5328 14.666C26.5328 15.3291 25.9957 15.8662 25.3332 15.8662C24.6707 15.8662 24.1336 15.3291 24.1336 14.666C24.1336 14.0039 24.6707 13.4668 25.3332 13.4668C25.9957 13.4668 26.5328 14.0039 26.5328 14.666Z" fill="#FFFFFF" fill-opacity="1.000000" fill-rule="evenodd"/>
</svg>
