<svg width="40.000000" height="40.000000" viewBox="0 0 40 40" fill="none" xmlns="http://www.w3.org/2000/svg" xmlns:xlink="http://www.w3.org/1999/xlink">
	<desc>
			Created with Pixso.
	</desc>
	<defs/>
	<path id="Oval 3 Copy 4" d="M20 40C31.0457 40 40 31.0459 40 20C40 8.9541 31.0457 0 20 0C8.95432 0 0 8.9541 0 20C0 31.0459 8.95432 40 20 40Z" fill="#4C75A3" fill-opacity="1.000000" fill-rule="evenodd"/>
	<path id="Oval 3 Copy 3" d="M20 34C27.732 34 34 27.7324 34 20C34 12.2676 27.732 6 20 6C12.268 6 6 12.2676 6 20C6 27.7324 12.268 34 20 34Z" fill="#FFFFFF" fill-opacity="1.000000" fill-rule="evenodd"/>
	<path id="Vector" d="M20 6C12.2683 6 6 12.2676 6 20C6 27.7324 12.2683 34 20 34C27.7317 34 34 27.7324 34 20C34 12.2676 27.7317 6 20 6ZM27.1015 21.5137C27.7541 22.1514 28.4444 22.751 29.0302 23.4541C29.2897 23.7656 29.5343 24.0869 29.7205 24.4492C29.9863 24.9648 29.7463 25.5303 29.2845 25.5615L26.4164 25.5605C25.6756 25.6221 25.0861 25.3232 24.5891 24.8164C24.1924 24.4131 23.8243 23.9824 23.4422 23.5645C23.2861 23.3936 23.1217 23.2324 22.9258 23.1055C22.5348 22.8506 22.195 22.9287 21.971 23.3369C21.7427 23.7529 21.6906 24.2139 21.6688 24.6758C21.6376 25.3525 21.4337 25.5293 20.7551 25.5615C19.3051 25.6289 17.9293 25.4092 16.6506 24.6777C15.5226 24.0332 14.6495 23.123 13.8887 22.0928C12.4072 20.084 11.2726 17.8799 10.2531 15.6123C10.0237 15.1016 10.1916 14.8281 10.755 14.8174C11.6911 14.7988 12.6272 14.8018 13.5633 14.8164C13.9443 14.8223 14.1964 15.04 14.3427 15.4004C14.8486 16.6445 15.4687 17.8291 16.2458 18.9268C16.4529 19.2197 16.6643 19.5107 16.9654 19.7178C17.2977 19.9453 17.5509 19.8701 17.7076 19.499C17.8078 19.2637 17.8511 19.0117 17.8729 18.7588C17.9473 17.8936 17.9562 17.0283 17.8273 16.167C17.7471 15.627 17.4438 15.2793 16.9061 15.1768C16.6323 15.125 16.6724 15.0234 16.8056 14.8672C17.0367 14.5967 17.2533 14.4297 17.6861 14.4297L20.9266 14.4287C21.4374 14.5293 21.552 14.7588 21.6213 15.2725L21.6241 18.874C21.6181 19.0732 21.7241 19.6631 22.0816 19.7939C22.368 19.8877 22.5571 19.6582 22.7284 19.4766C23.5055 18.6523 24.0592 17.6787 24.5551 16.6719C24.7739 16.2275 24.9626 15.7676 25.146 15.3066C25.2823 14.9658 25.4943 14.7988 25.8787 14.8047L28.9992 14.8086C29.0912 14.8086 29.1846 14.8086 29.2757 14.8252C29.8016 14.915 29.9456 15.1406 29.783 15.6543C29.5269 16.46 29.0293 17.1318 28.5429 17.8047C28.0216 18.5254 27.4656 19.2207 26.9494 19.9443C26.4751 20.6064 26.5126 20.9395 27.1015 21.5137Z" fill="#4C75A3" fill-opacity="1.000000" fill-rule="nonzero"/>
</svg>
