<svg width="40.000000" height="40.000000" viewBox="0 0 40 40" fill="none" xmlns="http://www.w3.org/2000/svg" xmlns:xlink="http://www.w3.org/1999/xlink">
	<desc>
			Created with Pixso.
	</desc>
	<defs/>
	<path id="Oval 3 Copy 3" d="M20 40C31.0457 40 40 31.0459 40 20C40 8.9541 31.0457 0 20 0C8.95432 0 0 8.9541 0 20C0 31.0459 8.95432 40 20 40Z" fill="#3064CE" fill-opacity="1.000000" fill-rule="evenodd"/>
	<path id="Shape Copy" d="M24.6234 11.0039L22.2249 11C19.5302 11 17.7888 12.7383 17.7888 15.4297L17.7888 17.4727L15.3771 17.4727C15.1688 17.4727 15 17.6367 15 17.8398L15 20.7988C15 21.002 15.1689 21.166 15.3771 21.166L17.7888 21.166L17.7888 28.6328C17.7888 28.8359 17.9575 29 18.1659 29L21.3124 29C21.5208 29 21.6896 28.8359 21.6896 28.6328L21.6896 21.166L24.5093 21.166C24.7177 21.166 24.8865 21.002 24.8865 20.7988L24.8876 17.8398C24.8876 17.7422 24.8478 17.6484 24.7772 17.5801C24.7065 17.5107 24.6104 17.4727 24.5103 17.4727L21.6896 17.4727L21.6896 15.7412C21.6896 14.9082 21.8933 14.4863 23.0073 14.4863L24.623 14.4854C24.8312 14.4854 25 14.3213 25 14.1182L25 11.3711C25 11.168 24.8315 11.0039 24.6234 11.0039Z" fill="#FFFFFF" fill-opacity="1.000000" fill-rule="nonzero"/>
</svg>
