<svg width="40.000000" height="40.000000" viewBox="0 0 40 40" fill="none" xmlns="http://www.w3.org/2000/svg" xmlns:xlink="http://www.w3.org/1999/xlink">
	<desc>
			Created with Pixso.
	</desc>
	<defs/>
	<path id="Oval 3" d="M40 20C40 31.0459 31.0457 40 20 40C8.95428 40 0 31.0459 0 20C0 8.9541 8.95428 0 20 0C31.0457 0 40 8.9541 40 20ZM37.6087 12.7061Q39 16.0645 39 20Q39 23.9346 37.6088 27.2939Q36.2175 30.6523 33.4351 33.4346Q30.6525 36.2178 27.2938 37.6084Q23.935 39 20 39Q16.0649 39 12.7062 37.6084Q9.34741 36.2178 6.56494 33.4346Q3.78247 30.6523 2.39124 27.2939Q1 23.9346 1 20Q1 16.0654 2.39124 12.7061Q3.78247 9.34766 6.56494 6.56543Q9.34747 3.78223 12.7062 2.3916Q16.065 1 20 1Q23.9351 1 27.2939 2.3916Q30.6526 3.78223 33.4351 6.56543Q36.2175 9.34766 37.6087 12.7061Z" fill="#282F36" fill-opacity="0.150000" fill-rule="evenodd"/>
	<path id="Shape Copy" d="M24.6234 11.0039L22.2249 11C19.5302 11 17.7888 12.7383 17.7888 15.4297L17.7888 17.4727L15.3771 17.4727C15.1688 17.4727 15 17.6367 15 17.8398L15 20.7988C15 21.002 15.1689 21.166 15.3771 21.166L17.7888 21.166L17.7888 28.6328C17.7888 28.8359 17.9575 29 18.166 29L21.3124 29C21.5208 29 21.6896 28.8359 21.6896 28.6328L21.6896 21.166L24.5093 21.166C24.7177 21.166 24.8865 21.002 24.8865 20.7988L24.8876 17.8398C24.8876 17.7422 24.8478 17.6484 24.7772 17.5801C24.7065 17.5107 24.6104 17.4727 24.5103 17.4727L21.6896 17.4727L21.6896 15.7412C21.6896 14.9082 21.8933 14.4863 23.0073 14.4863L24.623 14.4854C24.8312 14.4854 25 14.3213 25 14.1182L25 11.3711C25 11.168 24.8314 11.0039 24.6234 11.0039Z" fill="#282F36" fill-opacity="0.300000" fill-rule="nonzero"/>
</svg>
