<svg width="23.000000" height="30.000000" viewBox="0 0 23 30" fill="none" xmlns="http://www.w3.org/2000/svg" xmlns:xlink="http://www.w3.org/1999/xlink">
	<desc>
			Created with Pixso.
	</desc>
	<defs/>
	<path id="Shape" d="M12.7976 0L4.25928 0C1.9082 0 0 1.91992 0 4.28613L0 25.7139C0 28.082 1.9082 30 4.25928 30L18.7407 30C21.0918 30 23 28.0801 23 25.7139L23 10.2529C23 9.72461 22.791 9.21777 22.4186 8.84375L14.2162 0.589844C13.8407 0.212891 13.3302 0 12.7976 0ZM4 28L19 28C20.1046 28 21 27.1045 21 26L21 12.0723C21 10.9404 20.0604 10.0332 18.9286 10.0742L15.0714 10.2119C13.9396 10.252 13 9.3457 13 8.21289L13 4C13 2.89551 12.1046 2 11 2L4 2C2.89539 2 2 2.89551 2 4L2 26C2 27.1045 2.89539 28 4 28Z" clip-rule="evenodd" fill="#282F36" fill-opacity="0.300000" fill-rule="evenodd"/>
</svg>
