<svg width="20.000000" height="20.000000" viewBox="0 0 20 20" fill="none" xmlns="http://www.w3.org/2000/svg" xmlns:xlink="http://www.w3.org/1999/xlink">
	<desc>
			Created with Pixso.
	</desc>
	<defs>
		<clipPath id="clip393_11">
			<rect id="Interface/Interface 52 - 24px" width="20.000000" height="20.000000" fill="white" fill-opacity="0"/>
		</clipPath>
	</defs>
	<g clip-path="url(#clip393_11)">
		<path id="Icon" d="M1.66667 7.91699C1.66667 11.3691 4.46489 14.167 7.91667 14.167C9.35971 14.167 10.6885 13.6777 11.7464 12.8564C11.7863 12.9404 11.841 13.0195 11.9108 13.0898L16.9108 18.0898C17.2362 18.415 17.7638 18.415 18.0893 18.0898C18.4147 17.7637 18.4147 17.2363 18.0893 16.9111L13.0893 11.9111C13.0195 11.8418 12.9406 11.7861 12.8562 11.7471C13.6776 10.6885 14.1667 9.36035 14.1667 7.91699C14.1667 4.46484 11.3685 1.66699 7.91667 1.66699C4.46489 1.66699 1.66667 4.46484 1.66667 7.91699ZM3.33334 7.91699C3.33334 5.38574 5.38538 3.33398 7.91667 3.33398C10.448 3.33398 12.5 5.38574 12.5 7.91699C12.5 10.4482 10.448 12.5 7.91667 12.5C5.38538 12.5 3.33334 10.4482 3.33334 7.91699Z" fill="#1C294D" fill-opacity="0.500000" fill-rule="evenodd"/>
	</g>
</svg>
