<svg width="20.000000" height="20.000000" viewBox="0 0 20 20" fill="none" xmlns="http://www.w3.org/2000/svg" xmlns:xlink="http://www.w3.org/1999/xlink">
	<desc>
			Created with Pixso.
	</desc>
	<defs/>
	<path id="Shape" d="M19.8982 1.07129C19.8092 0.996094 19.6825 0.978516 19.5751 1.02637L0.172974 9.66699C0.0684814 9.71289 0.0012207 9.81348 0 9.92383C-0.0012207 10.0342 0.0638428 10.1348 0.167236 10.1836L4 11.8418C4.10071 11.8887 12 7.89941 12 7.89941L7.13416 13.124C7.04797 13.2168 7 13.3379 7 13.4648L7 17.5C7 17.9502 7.54822 18.1709 7.86035 17.8467L10.49 15.1133L14.4912 17.0547C14.5695 17.0908 14.6599 17.0918 14.7394 17.0586C14.8188 17.0254 14.8794 16.9609 14.9054 16.8818L19.9862 1.37207C20.0217 1.26367 19.9872 1.14551 19.8982 1.07129Z" fill="#FFFFFF" fill-opacity="1.000000" fill-rule="nonzero"/>
</svg>
